<svg id="Layer_1" enable-background="new 0 0 506.754 506.754" height="512" viewBox="0 0 506.754 506.754" width="512" xmlns="http://www.w3.org/2000/svg"><path d="m269.82 226.937 42.807 24.675 75.614-43.655v-40.222c0-5.892-3.143-11.336-8.245-14.281l-34.475-19.903-75.701 43.705z"/><path d="m253.33 148.693 75.7-43.705v-39.723c0-5.892-3.143-11.336-8.245-14.281l-59.21-34.185c-5.102-2.945-11.389-2.945-16.49 0l-59.21 34.185c-5.103 2.945-8.245 8.39-8.245 14.281v39.723z"/><path d="m194.12 251.607 42.72-24.664v-49.688l-75.7-43.706-34.475 19.904c-5.103 2.945-8.245 8.39-8.245 14.281v40.167z"/><path d="m439.299 256.368-34.474-19.903-75.714 43.713-.067 49.236 42.821 24.683 75.679-43.693v-39.754c0-5.892-3.143-11.337-8.245-14.282z"/><path d="m296.13 280.17-42.794-24.667-42.726 24.667v49.244l42.72 24.664 42.733-24.672z"/><path d="m236.84 382.64-42.72-24.664-42.72 24.664v87.411l34.475 19.904c5.101 2.945 11.389 2.945 16.49 0l34.475-19.904z"/><path d="m134.91 354.077 42.72-24.663v-49.244l-75.7-43.706-34.474 19.904c-5.103 2.945-8.245 8.39-8.245 14.281v39.723z"/><path d="m355.354 382.647-42.807-24.675-42.727 24.668v87.411l34.475 19.904c5.112 2.95 11.397 2.94 16.49 0l34.568-19.958v-87.35z"/><path d="m498.509 358.838-34.447-19.888-75.728 43.721v87.38l34.475 19.904c5.101 2.945 11.389 2.945 16.49 0l59.21-34.185c5.103-2.945 8.245-8.39 8.245-14.281v-68.37c0-5.891-3.143-11.336-8.245-14.281z"/><path d="m118.42 382.64-75.701-43.706-34.474 19.904c-5.102 2.945-8.245 8.39-8.245 14.281v68.37c0 5.892 3.143 11.336 8.245 14.281l59.21 34.185c5.101 2.945 11.389 2.945 16.49 0l34.475-19.904z"/></svg>