<svg id="Gradient" height="512" viewBox="0 0 512 512" width="512" xmlns="http://www.w3.org/2000/svg" xmlns:xlink="http://www.w3.org/1999/xlink"><linearGradient id="linear-gradient" gradientUnits="userSpaceOnUse" x1="256" x2="256" y1="448" y2="64"><stop offset="0" stop-color="#27c1e6"/><stop offset=".5" stop-color="#c275e9"/><stop offset="1" stop-color="#f2515d"/></linearGradient><path d="m488 64h-400v.019a7.982 7.982 0 0 0 -5.657 2.324l-64 64a7.982 7.982 0 0 0 -2.324 5.657h-.019v304a8 8 0 0 0 8 8h464a8 8 0 0 0 8-8v-368a8 8 0 0 0 -8-8zm-408 27.313v36.687h-36.687zm400 340.687h-448v-288h56a8 8 0 0 0 8-8v-56h384zm-424-232a8 8 0 0 0 -8 8v96a8 8 0 0 0 8 8h96a8 8 0 0 0 8-8v-96a8 8 0 0 0 -8-8zm88 96h-80v-80h80zm104 16a56 56 0 1 0 -56-56 56.063 56.063 0 0 0 56 56zm0-96a40 40 0 1 1 -40 40 40.045 40.045 0 0 1 40-40zm96 96h112a8 8 0 0 0 6.91-12.031l-56-96a8 8 0 0 0 -13.82 0l-56 96a8 8 0 0 0 6.91 12.031zm56-88.123 42.071 72.123h-84.142z" fill="url(#linear-gradient)"/></svg>